<mxfile host="app.diagrams.net" agent="Mozilla/5.0 (Windows NT 10.0; Win64; x64) AppleWebKit/537.36 (KHTML, like Gecko) Chrome/127.0.0.0 Safari/537.36 Edg/127.0.0.0" version="24.7.6">
  <diagram name="第 1 页" id="bEU7kFt0rG62Kg0EqnDa">
    <mxGraphModel dx="1426" dy="795" grid="1" gridSize="10" guides="1" tooltips="1" connect="1" arrows="1" fold="1" page="1" pageScale="1" pageWidth="827" pageHeight="1169" math="0" shadow="0">
      <root>
        <mxCell id="0" />
        <mxCell id="1" parent="0" />
        <mxCell id="B18AXk-iRoXlbSAZtDdE-1" value="1" style="rounded=0;whiteSpace=wrap;html=1;" vertex="1" parent="1">
          <mxGeometry x="120" y="535" width="50" height="50" as="geometry" />
        </mxCell>
        <mxCell id="B18AXk-iRoXlbSAZtDdE-2" value="2" style="rounded=0;whiteSpace=wrap;html=1;" vertex="1" parent="1">
          <mxGeometry x="230" y="535" width="50" height="50" as="geometry" />
        </mxCell>
        <mxCell id="B18AXk-iRoXlbSAZtDdE-3" value="3" style="rounded=0;whiteSpace=wrap;html=1;" vertex="1" parent="1">
          <mxGeometry x="343.5" y="535" width="50" height="50" as="geometry" />
        </mxCell>
        <mxCell id="B18AXk-iRoXlbSAZtDdE-4" value="4" style="rounded=0;whiteSpace=wrap;html=1;" vertex="1" parent="1">
          <mxGeometry x="460" y="535" width="50" height="50" as="geometry" />
        </mxCell>
        <mxCell id="B18AXk-iRoXlbSAZtDdE-5" value="5" style="rounded=0;whiteSpace=wrap;html=1;" vertex="1" parent="1">
          <mxGeometry x="580" y="535" width="50" height="50" as="geometry" />
        </mxCell>
        <mxCell id="B18AXk-iRoXlbSAZtDdE-6" value="" style="rounded=0;whiteSpace=wrap;html=1;" vertex="1" parent="1">
          <mxGeometry x="150" y="420" width="100" height="50" as="geometry" />
        </mxCell>
        <mxCell id="B18AXk-iRoXlbSAZtDdE-8" value="" style="endArrow=classic;html=1;rounded=0;entryX=0.5;entryY=1;entryDx=0;entryDy=0;exitX=0.5;exitY=0;exitDx=0;exitDy=0;" edge="1" parent="1" source="B18AXk-iRoXlbSAZtDdE-3" target="B18AXk-iRoXlbSAZtDdE-11">
          <mxGeometry width="50" height="50" relative="1" as="geometry">
            <mxPoint x="400" y="530" as="sourcePoint" />
            <mxPoint x="450" y="480" as="targetPoint" />
          </mxGeometry>
        </mxCell>
        <mxCell id="B18AXk-iRoXlbSAZtDdE-9" value="" style="endArrow=classic;html=1;rounded=0;entryX=0.5;entryY=1;entryDx=0;entryDy=0;exitX=0.5;exitY=0;exitDx=0;exitDy=0;" edge="1" parent="1" source="B18AXk-iRoXlbSAZtDdE-5" target="B18AXk-iRoXlbSAZtDdE-12">
          <mxGeometry width="50" height="50" relative="1" as="geometry">
            <mxPoint x="600" y="530" as="sourcePoint" />
            <mxPoint x="650" y="480" as="targetPoint" />
          </mxGeometry>
        </mxCell>
        <mxCell id="B18AXk-iRoXlbSAZtDdE-28" style="edgeStyle=orthogonalEdgeStyle;rounded=0;orthogonalLoop=1;jettySize=auto;html=1;exitX=1;exitY=0;exitDx=0;exitDy=0;" edge="1" parent="1" source="B18AXk-iRoXlbSAZtDdE-11" target="B18AXk-iRoXlbSAZtDdE-13">
          <mxGeometry relative="1" as="geometry" />
        </mxCell>
        <mxCell id="B18AXk-iRoXlbSAZtDdE-11" value="3" style="rounded=0;whiteSpace=wrap;html=1;" vertex="1" parent="1">
          <mxGeometry x="150" y="420" width="50" height="50" as="geometry" />
        </mxCell>
        <mxCell id="B18AXk-iRoXlbSAZtDdE-12" value="5" style="rounded=0;whiteSpace=wrap;html=1;" vertex="1" parent="1">
          <mxGeometry x="200" y="420" width="50" height="50" as="geometry" />
        </mxCell>
        <mxCell id="B18AXk-iRoXlbSAZtDdE-13" value="6" style="rounded=0;whiteSpace=wrap;html=1;" vertex="1" parent="1">
          <mxGeometry x="175" y="320" width="50" height="50" as="geometry" />
        </mxCell>
        <mxCell id="B18AXk-iRoXlbSAZtDdE-14" value="" style="rounded=0;whiteSpace=wrap;html=1;" vertex="1" parent="1">
          <mxGeometry x="320" y="420" width="150" height="50" as="geometry" />
        </mxCell>
        <mxCell id="B18AXk-iRoXlbSAZtDdE-15" value="" style="rounded=0;whiteSpace=wrap;html=1;" vertex="1" parent="1">
          <mxGeometry x="540" y="420" width="100" height="50" as="geometry" />
        </mxCell>
        <mxCell id="B18AXk-iRoXlbSAZtDdE-16" value="1" style="rounded=0;whiteSpace=wrap;html=1;" vertex="1" parent="1">
          <mxGeometry x="320" y="420" width="50" height="50" as="geometry" />
        </mxCell>
        <mxCell id="B18AXk-iRoXlbSAZtDdE-29" style="edgeStyle=orthogonalEdgeStyle;rounded=0;orthogonalLoop=1;jettySize=auto;html=1;exitX=0.5;exitY=0;exitDx=0;exitDy=0;" edge="1" parent="1" source="B18AXk-iRoXlbSAZtDdE-17" target="B18AXk-iRoXlbSAZtDdE-21">
          <mxGeometry relative="1" as="geometry" />
        </mxCell>
        <mxCell id="B18AXk-iRoXlbSAZtDdE-17" value="4" style="rounded=0;whiteSpace=wrap;html=1;" vertex="1" parent="1">
          <mxGeometry x="370" y="420" width="50" height="50" as="geometry" />
        </mxCell>
        <mxCell id="B18AXk-iRoXlbSAZtDdE-18" value="5" style="rounded=0;whiteSpace=wrap;html=1;" vertex="1" parent="1">
          <mxGeometry x="420" y="420" width="50" height="50" as="geometry" />
        </mxCell>
        <mxCell id="B18AXk-iRoXlbSAZtDdE-30" style="edgeStyle=orthogonalEdgeStyle;rounded=0;orthogonalLoop=1;jettySize=auto;html=1;exitX=1;exitY=0;exitDx=0;exitDy=0;" edge="1" parent="1" source="B18AXk-iRoXlbSAZtDdE-19" target="B18AXk-iRoXlbSAZtDdE-22">
          <mxGeometry relative="1" as="geometry" />
        </mxCell>
        <mxCell id="B18AXk-iRoXlbSAZtDdE-19" value="2" style="rounded=0;whiteSpace=wrap;html=1;" vertex="1" parent="1">
          <mxGeometry x="540" y="420" width="50" height="50" as="geometry" />
        </mxCell>
        <mxCell id="B18AXk-iRoXlbSAZtDdE-20" value="3" style="rounded=0;whiteSpace=wrap;html=1;" vertex="1" parent="1">
          <mxGeometry x="590" y="420" width="50" height="50" as="geometry" />
        </mxCell>
        <mxCell id="B18AXk-iRoXlbSAZtDdE-21" value="7" style="rounded=0;whiteSpace=wrap;html=1;" vertex="1" parent="1">
          <mxGeometry x="370" y="320" width="50" height="50" as="geometry" />
        </mxCell>
        <mxCell id="B18AXk-iRoXlbSAZtDdE-22" value="8" style="rounded=0;whiteSpace=wrap;html=1;" vertex="1" parent="1">
          <mxGeometry x="565" y="320" width="50" height="50" as="geometry" />
        </mxCell>
        <mxCell id="B18AXk-iRoXlbSAZtDdE-23" value="" style="endArrow=classic;html=1;rounded=0;exitX=0.5;exitY=0;exitDx=0;exitDy=0;entryX=0.5;entryY=1;entryDx=0;entryDy=0;" edge="1" parent="1" source="B18AXk-iRoXlbSAZtDdE-1" target="B18AXk-iRoXlbSAZtDdE-16">
          <mxGeometry width="50" height="50" relative="1" as="geometry">
            <mxPoint x="200" y="530" as="sourcePoint" />
            <mxPoint x="250" y="480" as="targetPoint" />
          </mxGeometry>
        </mxCell>
        <mxCell id="B18AXk-iRoXlbSAZtDdE-24" value="" style="endArrow=classic;html=1;rounded=0;entryX=0.5;entryY=1;entryDx=0;entryDy=0;exitX=0.5;exitY=0;exitDx=0;exitDy=0;" edge="1" parent="1" source="B18AXk-iRoXlbSAZtDdE-4" target="B18AXk-iRoXlbSAZtDdE-17">
          <mxGeometry width="50" height="50" relative="1" as="geometry">
            <mxPoint x="450" y="530" as="sourcePoint" />
            <mxPoint x="500" y="480" as="targetPoint" />
          </mxGeometry>
        </mxCell>
        <mxCell id="B18AXk-iRoXlbSAZtDdE-25" value="" style="endArrow=classic;html=1;rounded=0;entryX=0.5;entryY=1;entryDx=0;entryDy=0;exitX=0.5;exitY=0;exitDx=0;exitDy=0;" edge="1" parent="1" source="B18AXk-iRoXlbSAZtDdE-5" target="B18AXk-iRoXlbSAZtDdE-18">
          <mxGeometry width="50" height="50" relative="1" as="geometry">
            <mxPoint x="480" y="520" as="sourcePoint" />
            <mxPoint x="530" y="470" as="targetPoint" />
          </mxGeometry>
        </mxCell>
        <mxCell id="B18AXk-iRoXlbSAZtDdE-26" value="" style="endArrow=classic;html=1;rounded=0;exitX=0.5;exitY=0;exitDx=0;exitDy=0;entryX=0.5;entryY=1;entryDx=0;entryDy=0;" edge="1" parent="1" source="B18AXk-iRoXlbSAZtDdE-2" target="B18AXk-iRoXlbSAZtDdE-19">
          <mxGeometry width="50" height="50" relative="1" as="geometry">
            <mxPoint x="320" y="540" as="sourcePoint" />
            <mxPoint x="370" y="490" as="targetPoint" />
          </mxGeometry>
        </mxCell>
        <mxCell id="B18AXk-iRoXlbSAZtDdE-27" value="" style="endArrow=classic;html=1;rounded=0;entryX=0.5;entryY=1;entryDx=0;entryDy=0;exitX=0.5;exitY=0;exitDx=0;exitDy=0;" edge="1" parent="1" source="B18AXk-iRoXlbSAZtDdE-3" target="B18AXk-iRoXlbSAZtDdE-20">
          <mxGeometry width="50" height="50" relative="1" as="geometry">
            <mxPoint x="560" y="530" as="sourcePoint" />
            <mxPoint x="610" y="480" as="targetPoint" />
          </mxGeometry>
        </mxCell>
        <mxCell id="B18AXk-iRoXlbSAZtDdE-31" value="" style="endArrow=classic;html=1;rounded=0;" edge="1" parent="1">
          <mxGeometry width="50" height="50" relative="1" as="geometry">
            <mxPoint x="80" y="440" as="sourcePoint" />
            <mxPoint x="80" y="340" as="targetPoint" />
          </mxGeometry>
        </mxCell>
        <mxCell id="B18AXk-iRoXlbSAZtDdE-32" value="&lt;font style=&quot;font-size: 15px;&quot;&gt;summarize&lt;/font&gt;" style="edgeLabel;html=1;align=center;verticalAlign=middle;resizable=0;points=[];" vertex="1" connectable="0" parent="B18AXk-iRoXlbSAZtDdE-31">
          <mxGeometry x="-0.075" relative="1" as="geometry">
            <mxPoint as="offset" />
          </mxGeometry>
        </mxCell>
        <mxCell id="B18AXk-iRoXlbSAZtDdE-33" value="" style="endArrow=classic;html=1;rounded=0;" edge="1" parent="1">
          <mxGeometry width="50" height="50" relative="1" as="geometry">
            <mxPoint x="80" y="550" as="sourcePoint" />
            <mxPoint x="80" y="450" as="targetPoint" />
          </mxGeometry>
        </mxCell>
        <mxCell id="B18AXk-iRoXlbSAZtDdE-34" value="&lt;font style=&quot;font-size: 15px;&quot;&gt;cluster&lt;/font&gt;" style="edgeLabel;html=1;align=center;verticalAlign=middle;resizable=0;points=[];" vertex="1" connectable="0" parent="B18AXk-iRoXlbSAZtDdE-33">
          <mxGeometry x="-0.075" relative="1" as="geometry">
            <mxPoint as="offset" />
          </mxGeometry>
        </mxCell>
        <mxCell id="B18AXk-iRoXlbSAZtDdE-35" value="1 , 2" style="rounded=0;whiteSpace=wrap;html=1;" vertex="1" parent="1">
          <mxGeometry x="150" y="640" width="100" height="50" as="geometry" />
        </mxCell>
        <mxCell id="B18AXk-iRoXlbSAZtDdE-39" value="3 , 4" style="rounded=0;whiteSpace=wrap;html=1;" vertex="1" parent="1">
          <mxGeometry x="380" y="640" width="100" height="50" as="geometry" />
        </mxCell>
        <mxCell id="B18AXk-iRoXlbSAZtDdE-40" value="5" style="rounded=0;whiteSpace=wrap;html=1;" vertex="1" parent="1">
          <mxGeometry x="555" y="640" width="100" height="50" as="geometry" />
        </mxCell>
        <mxCell id="B18AXk-iRoXlbSAZtDdE-41" value="" style="endArrow=classic;html=1;rounded=0;exitX=0.5;exitY=0;exitDx=0;exitDy=0;entryX=0.5;entryY=1;entryDx=0;entryDy=0;" edge="1" parent="1" source="B18AXk-iRoXlbSAZtDdE-35" target="B18AXk-iRoXlbSAZtDdE-1">
          <mxGeometry width="50" height="50" relative="1" as="geometry">
            <mxPoint x="60" y="690" as="sourcePoint" />
            <mxPoint x="110" y="640" as="targetPoint" />
          </mxGeometry>
        </mxCell>
        <mxCell id="B18AXk-iRoXlbSAZtDdE-42" value="" style="endArrow=classic;html=1;rounded=0;entryX=0.5;entryY=1;entryDx=0;entryDy=0;exitX=0.5;exitY=0;exitDx=0;exitDy=0;" edge="1" parent="1" source="B18AXk-iRoXlbSAZtDdE-35" target="B18AXk-iRoXlbSAZtDdE-2">
          <mxGeometry width="50" height="50" relative="1" as="geometry">
            <mxPoint x="120" y="820" as="sourcePoint" />
            <mxPoint x="170" y="770" as="targetPoint" />
          </mxGeometry>
        </mxCell>
        <mxCell id="B18AXk-iRoXlbSAZtDdE-43" value="" style="endArrow=classic;html=1;rounded=0;entryX=0.5;entryY=1;entryDx=0;entryDy=0;exitX=0.5;exitY=0;exitDx=0;exitDy=0;" edge="1" parent="1" source="B18AXk-iRoXlbSAZtDdE-39" target="B18AXk-iRoXlbSAZtDdE-3">
          <mxGeometry width="50" height="50" relative="1" as="geometry">
            <mxPoint x="330" y="800" as="sourcePoint" />
            <mxPoint x="380" y="750" as="targetPoint" />
          </mxGeometry>
        </mxCell>
        <mxCell id="B18AXk-iRoXlbSAZtDdE-44" value="" style="endArrow=classic;html=1;rounded=0;entryX=0.5;entryY=1;entryDx=0;entryDy=0;exitX=0.5;exitY=0;exitDx=0;exitDy=0;" edge="1" parent="1" source="B18AXk-iRoXlbSAZtDdE-39" target="B18AXk-iRoXlbSAZtDdE-4">
          <mxGeometry width="50" height="50" relative="1" as="geometry">
            <mxPoint x="430" y="820" as="sourcePoint" />
            <mxPoint x="480" y="770" as="targetPoint" />
          </mxGeometry>
        </mxCell>
        <mxCell id="B18AXk-iRoXlbSAZtDdE-45" value="" style="endArrow=classic;html=1;rounded=0;entryX=0.5;entryY=1;entryDx=0;entryDy=0;exitX=0.5;exitY=0;exitDx=0;exitDy=0;" edge="1" parent="1" source="B18AXk-iRoXlbSAZtDdE-40" target="B18AXk-iRoXlbSAZtDdE-5">
          <mxGeometry width="50" height="50" relative="1" as="geometry">
            <mxPoint x="620" y="800" as="sourcePoint" />
            <mxPoint x="670" y="750" as="targetPoint" />
          </mxGeometry>
        </mxCell>
        <mxCell id="B18AXk-iRoXlbSAZtDdE-46" value="" style="endArrow=classic;html=1;rounded=0;" edge="1" parent="1">
          <mxGeometry width="50" height="50" relative="1" as="geometry">
            <mxPoint x="80" y="670" as="sourcePoint" />
            <mxPoint x="80" y="570" as="targetPoint" />
          </mxGeometry>
        </mxCell>
        <mxCell id="B18AXk-iRoXlbSAZtDdE-47" value="&lt;font style=&quot;font-size: 15px;&quot;&gt;split&lt;/font&gt;" style="edgeLabel;html=1;align=center;verticalAlign=middle;resizable=0;points=[];" vertex="1" connectable="0" parent="B18AXk-iRoXlbSAZtDdE-46">
          <mxGeometry x="-0.075" relative="1" as="geometry">
            <mxPoint as="offset" />
          </mxGeometry>
        </mxCell>
      </root>
    </mxGraphModel>
  </diagram>
</mxfile>
